<?xml version="1.0" encoding="UTF-8"?>
<!DOCTYPE svg PUBLIC "-//W3C//DTD SVG 1.0//EN" "http://www.w3.org/TR/2001/REC-SVG-20010904/DTD/svg10.dtd">
<!-- Creator: CorelDRAW X8 -->
<svg xmlns="http://www.w3.org/2000/svg" xml:space="preserve" width="428px" height="402px" version="1.0" style="shape-rendering:geometricPrecision; text-rendering:geometricPrecision; image-rendering:optimizeQuality; fill-rule:evenodd; clip-rule:evenodd"
viewBox="0 0 113 106"
 xmlns:xlink="http://www.w3.org/1999/xlink">
 <defs>
  <style type="text/css">
   <![CDATA[
    .fil1 {fill:#B26D22}
    .fil2 {fill:#F7AF32}
    .fil5 {fill:#F9C962}
    .fil6 {fill:#FBDE9D}
    .fil0 {fill:#FFEED4}
    .fil3 {fill:#8B5601;fill-rule:nonzero}
    .fil4 {fill:white;fill-rule:nonzero}
   ]]>
  </style>
 </defs>
 <g id="Слой_x0020_1">
  <metadata id="CorelCorpID_0Corel-Layer"/>
  <ellipse class="fil0" cx="57" cy="53" rx="57" ry="53"/>
  <ellipse class="fil1" cx="57" cy="51" rx="50" ry="48"/>
  <ellipse class="fil2" cx="57" cy="47" rx="50" ry="44"/>
  <path class="fil3" d="M47 70c-5,-1 -6,-46 -1,-47 4,-1 35,15 35,24 1,6 -30,23 -34,23z"/>
  <path class="fil4" d="M48 67c-3,0 -4,-41 0,-42 4,0 31,14 31,21 1,6 -27,22 -31,21z"/>
  <path class="fil5" d="M57 3c21,0 39,12 46,28 -11,-12 -28,-19 -46,-19 -19,0 -36,7 -47,19 7,-16 25,-28 47,-28z"/>
  <path class="fil6" d="M41 15c2,-2 4,-3 6,-3 2,1 3,3 3,5 -2,2 -5,4 -7,4 -2,-1 -3,-3 -2,-6z"/>
  <path class="fil6" d="M24 18c3,-2 7,-4 11,-3 2,1 4,4 4,8 -3,3 -9,6 -11,6 -4,-2 -5,-6 -4,-11z"/>
 </g>
</svg>
