<?xml version="1.0" encoding="UTF-8"?>
<!DOCTYPE svg PUBLIC "-//W3C//DTD SVG 1.0//EN" "http://www.w3.org/TR/2001/REC-SVG-20010904/DTD/svg10.dtd">
<!-- Creator: CorelDRAW X8 -->
<svg xmlns="http://www.w3.org/2000/svg" xml:space="preserve" width="428px" height="402px" version="1.0" style="shape-rendering:geometricPrecision; text-rendering:geometricPrecision; image-rendering:optimizeQuality; fill-rule:evenodd; clip-rule:evenodd"
viewBox="0 0 70 65"
 xmlns:xlink="http://www.w3.org/1999/xlink">
 <defs>
  <style type="text/css">
   <![CDATA[
    .fil1 {fill:#C80723}
    .fil2 {fill:#F3304C}
    .fil5 {fill:#F66076}
    .fil6 {fill:#F993A1}
    .fil0 {fill:#FDD4DA}
    .fil3 {fill:#880518;fill-rule:nonzero}
    .fil4 {fill:white;fill-rule:nonzero}
   ]]>
  </style>
 </defs>
 <g id="Слой_x0020_1">
  <metadata id="CorelCorpID_0Corel-Layer"/>
  <ellipse class="fil0" cx="35" cy="33" rx="35" ry="33"/>
  <ellipse class="fil1" cx="35" cy="31" rx="30" ry="29"/>
  <ellipse class="fil2" cx="35" cy="29" rx="30" ry="27"/>
  <path class="fil3" d="M29 43c-3,-1 -4,-29 -1,-29 3,0 22,10 22,15 0,3 -19,14 -21,14z"/>
  <path class="fil4" d="M30 41c-3,0 -3,-25 -1,-25 3,-1 20,8 20,13 0,3 -17,12 -19,12z"/>
  <path class="fil5" d="M35 2c13,0 24,7 28,17 -7,-7 -17,-12 -28,-12 -12,0 -22,5 -29,12 5,-10 16,-17 29,-17z"/>
  <path class="fil6" d="M25 9c1,-1 3,-1 4,-1 1,0 1,1 2,3 -2,1 -3,2 -4,2 -2,-1 -2,-2 -2,-4z"/>
  <path class="fil6" d="M14 11c3,-1 5,-2 7,-2 2,1 3,3 3,5 -2,2 -5,4 -7,4 -2,-1 -3,-4 -3,-7z"/>
 </g>
</svg>
